<?xml version="1.0" encoding="UTF-8" standalone="no"?>
<!-- Created with Inkscape (http://www.inkscape.org/) -->

<svg
   version="1.1"
   id="svg53"
   width="4522.6665"
   height="712"
   viewBox="0 0 4522.6665 712"
   sodipodi:docname="omofun_logo3.svg"
   inkscape:version="1.1.2 (0a00cf5339, 2022-02-04)"
   xmlns:inkscape="http://www.inkscape.org/namespaces/inkscape"
   xmlns:sodipodi="http://sodipodi.sourceforge.net/DTD/sodipodi-0.dtd"
   xmlns="http://www.w3.org/2000/svg"
   xmlns:svg="http://www.w3.org/2000/svg">
  <defs
     id="defs57" />
  <sodipodi:namedview
     id="namedview55"
     pagecolor="#ffffff"
     bordercolor="#666666"
     borderopacity="1.0"
     inkscape:pageshadow="2"
     inkscape:pageopacity="0.0"
     inkscape:pagecheckerboard="0"
     showgrid="false"
     inkscape:zoom="0.20142984"
     inkscape:cx="2261.3333"
     inkscape:cy="354.9623"
     inkscape:window-width="1080"
     inkscape:window-height="2345"
     inkscape:window-x="0"
     inkscape:window-y="0"
     inkscape:window-maximized="1"
     inkscape:current-layer="g59" />
  <g
     inkscape:groupmode="layer"
     inkscape:label="Image"
     id="g59">
    <path
       style="fill:#000000;stroke-width:1.33333"
       d="M 0,355.99998 V 2e-5 h 355.99999 355.99998 v 355.99996 356 H 355.99999 0 Z m 405.52539,305.27419 c 43.97705,-4.43491 80.97042,-16.9362 113.11295,-38.22463 18.7204,-12.39876 45.5214,-38.59603 59.04633,-57.71623 18.25645,-25.80912 34.75328,-64.13816 44.33589,-103.01078 9.93834,-40.31563 13.24471,-75.19774 12.28971,-129.65588 -1.08415,-61.82236 -8.86356,-106.39748 -26.44187,-151.50863 -13.37262,-34.3181 -30.48465,-61.0321 -54.53509,-85.1361 -17.95045,-17.9904 -34.93542,-30.443 -55.33333,-40.568 -37.60449,-18.666 -75.78102,-26.5993 -127.99999,-26.5993 -40.51888,0 -68.50683,4.0439 -100.22624,14.4814 -66.0322,21.7285 -112.3762,68.0222 -140.81656,140.664 -31.854811,81.36276 -35.365821,204.76865 -8.41472,295.76299 14.63574,49.41432 36.41159,86.74574 69.00987,118.30713 36.92706,35.75247 80.80938,55.63944 138.05771,62.5662 17.832,2.15757 59.46572,2.4984 77.91534,0.63783 z M 338.66665,552.08529 c -14.87961,-3.14274 -29.6753,-9.4131 -41.03419,-17.39015 -40.87466,-28.70515 -62.9658,-95.16712 -62.9658,-189.43473 0,-89.23166 20.11182,-154.70643 57.0302,-185.66389 9.55766,-8.0145 28.34286,-17.4064 42.30313,-21.15 8.93401,-2.3958 14.56514,-2.8782 34.66666,-2.97 20.79898,-0.095 25.60052,0.295 36,2.9245 14.57308,3.6847 30.70009,11.3698 40.96244,19.5201 27.14525,21.5584 45.46917,63.45538 53.9751,123.41219 1.92287,13.55398 2.35804,25.75574 2.33011,65.33334 -0.0309,43.82682 -0.33388,50.58934 -3.04639,68 -13.36558,85.78956 -44.32183,128.09841 -100.95175,137.97385 -15.98963,2.78836 -44.713,2.51929 -59.26951,-0.55521 z M 1809.3333,355.99998 V 2e-5 h 356 355.9999 v 355.99996 356 h -355.9999 -356 z m 407.5482,302.1218 c 26.553,-5.61199 46.0753,-13.58839 67.1184,-27.42309 16.0215,-10.5333 40.56,-34.94923 50.9532,-50.69871 22.4759,-34.05925 36.6303,-77.32772 41.1441,-125.77279 2.0372,-21.86496 0.8968,-72.46464 -2.0637,-91.56054 -10.312,-66.51519 -37.8685,-116.98802 -81.9572,-150.11368 -21.0723,-15.83248 -51.6721,-28.81155 -82.0764,-34.81325 -16.9916,-3.354 -67.8548,-3.364 -86,-0.017 -57.172,10.54631 -97.3865,36.65999 -127.2768,82.64838 -18.8129,28.94529 -30.9157,65.03604 -36.9868,110.2954 -1.0129,7.55135 -1.6926,26.66651 -1.6832,47.33333 0.017,38.05051 1.4804,51.88612 8.6324,81.6435 19.4691,81.00497 72.0311,138.29593 143.5343,156.44814 21.8449,5.5457 31.3935,6.45228 62.4468,5.92902 23.7727,-0.40059 30.4481,-0.98922 44.2149,-3.89886 z m -70.5061,-97.52572 c -18.2343,-4.42061 -34.6497,-17.06157 -44.0605,-33.92941 -6.2355,-11.17648 -13.511,-33.2484 -16.2618,-49.33334 -7.3572,-43.0215 -5.3446,-103.34528 4.6651,-139.8309 11.1039,-40.47428 33.9079,-60.64724 70.632,-62.4828 51.2401,-2.56112 76.7068,22.75973 87.5215,87.02028 2.0345,12.08937 2.4589,21.91274 2.4465,56.62676 -0.013,37.29501 -0.3401,43.79237 -2.9157,58 -11.1139,61.30604 -34.8026,86.19157 -81.7359,85.86576 -6.9667,-0.0484 -16.0977,-0.91972 -20.2912,-1.93635 z M 3225.3332,355.99998 V 2e-5 h 356 356 v 355.99996 356 h -356 -356 z m 333.7656,303.40261 c 31.6892,-7.20841 64.9688,-25.31197 78.848,-42.892 2.9625,-3.75248 7.4376,-10.17714 9.9447,-14.27701 7.26,-11.87227 10.2141,-11.36079 14.0529,2.43307 3.6527,13.12513 13.3212,31.64837 20.7784,39.80766 9.9163,10.84999 20.6803,15.85658 34.2795,15.94414 8.4042,0.0541 11.786,-0.5839 17.8784,-3.37315 17.9982,-8.23987 29.1248,-28.48635 33.1068,-60.2428 0.8408,-6.70548 1.3437,-72.78231 1.3404,-176.10088 0,-140.45439 -0.3062,-167.22232 -2.0014,-177.67451 -4.8397,-29.84149 -17.4408,-48.8057 -37.3888,-56.26921 -15.6186,-5.84368 -34.6754,-4.71008 -49.0213,2.91603 -18.7765,9.98141 -29.4983,31.11969 -32.8683,64.80065 -0.7957,7.95241 -1.3816,50.15811 -1.3816,99.5254 0,87.51337 -0.6169,102.11203 -5.3934,127.64019 -10.3212,55.16085 -30.6867,76.31332 -76.2692,79.2165 -15.0171,0.95644 -25.5728,-0.83621 -36.5272,-6.20326 -10.129,-4.96267 -16.7482,-12.13355 -22.598,-24.48155 -11.7215,-24.74197 -12.5455,-35.5208 -12.5455,-164.10509 0,-63.57187 -0.5413,-109.95838 -1.3628,-116.76843 -2.6897,-22.30101 -9.2371,-38.49131 -20.2935,-50.18173 -8.1358,-8.6025 -17.1364,-13.18279 -30.0104,-15.27199 -18.98,-3.0802 -37.3713,2.6129 -49.3468,15.27524 -7.9057,8.35905 -12.5861,17.06311 -16.2129,30.15076 -5.3077,19.15384 -5.6381,29.86768 -5.0808,164.72936 0.5156,124.76596 0.6336,129.85185 3.3424,144.01623 7.1144,37.20138 18.5843,61.56582 38.8192,82.45985 21.4115,22.10896 46.5267,34.93268 78.8123,40.24127 14.629,2.4054 54.1488,1.63105 67.0989,-1.31474 z m -2539.699,-6.87673 c -24.31993,-5.88143 -39.04923,-27.33076 -43.37043,-63.15757 -1.8477,-15.3188 -1.8307,-331.04511 0.019,-347.36831 4.5275,-39.96128 18.0492,-60.41676 42.75883,-64.68516 16.2089,-2.8 31.4769,2.2976 42.646,14.23825 8.4694,9.05447 12.9738,17.29571 18.7854,34.3691 2.7603,8.10946 5.9735,15.34448 7.1404,16.07781 2.5839,1.62385 5.179,-1.25717 12.6409,-14.03363 6.4705,-11.07916 13.8955,-18.59473 26.5994,-26.92408 27.6209,-18.10975 56.8714,-26.36745 93.3809,-26.36235 38.085,0 64.8585,7.4615 91.6205,25.51555 12.2518,8.26523 20.4512,16.72767 27.4767,28.35784 3.0632,5.071 7.2048,10.42724 9.2036,11.90274 3.5743,2.63846 3.6804,2.6409 6.4352,0.14782 1.5405,-1.39418 4.9675,-6.45042 7.6153,-11.23606 12.0863,-21.84408 41.346,-40.5301 78.676,-50.24449 15.9779,-4.158 49.8527,-5.7393 68.9727,-3.2197 70.2536,9.2577 107.3069,49.28045 117.3919,126.7998 1.7217,13.23424 1.9649,36.36025 1.6273,154.76124 l -0.3969,139.20199 -3.0367,10.48793 c -6.2284,21.51153 -15.1396,34.16137 -28.8044,40.88848 -11.52,5.67133 -24.5773,7.58492 -38.2036,5.59888 -28.734,-4.18803 -44.2789,-22.95031 -49.9667,-60.30863 -1.5604,-10.24878 -1.93,-33.04717 -1.9364,-119.43509 0,-67.62532 -0.5436,-112.091 -1.469,-121.28649 -2.9464,-29.27654 -10.5015,-48.96747 -23.769,-61.94964 -11.2612,-11.01908 -19.0284,-13.83042 -38.1032,-13.7914 -22.0981,0.0452 -37.0621,6.05624 -50.2953,20.20361 -14.0572,15.02831 -22.9968,39.73612 -27.8325,76.92568 -0.9964,7.66193 -1.8891,49.83752 -2.4696,116.66667 -0.887,102.10625 -0.9807,104.9276 -3.8304,115.33333 -8.1546,29.77733 -22.4902,44.14364 -47.6688,47.77099 -18.9373,2.72818 -40.0689,-3.65642 -50.5689,-15.2787 -6.8526,-7.58501 -13.6185,-22.49336 -16.9412,-37.32944 -2.6907,-12.01408 -2.8338,-17.22866 -3.7102,-135.16285 -0.7983,-107.42583 -1.1859,-123.81961 -3.1195,-131.94617 -3.2447,-13.63692 -4.712,-17.74059 -9.9569,-27.84672 -12.7692,-24.60451 -35.3889,-34.42443 -64.94,-28.19255 -29.1241,6.14183 -45.8968,25.02312 -55.2725,62.22107 -7.9683,31.6138 -8.433,39.0031 -9.4193,149.76437 -0.94,105.56256 -0.9986,106.63484 -6.8124,124.61284 -4.8524,15.00516 -15.6297,28.544 -26.9939,33.91061 -12.8614,6.07363 -29.35,7.57003 -44.1021,4.00243 z m 1743.4036,0.0784 c -26.7268,-5.79775 -41.4111,-27.88119 -45.5272,-68.46812 -0.9812,-9.67536 -1.3008,-87.3464 -1.0128,-246.1362 l 0.4209,-232.00002 2.9537,-10.4006 c 8.6348,-30.4038 26.957,-47.8756 57.6952,-55.0175 8.764,-2.0362 20.0342,-2.393 91.1786,-2.8863 105.0882,-0.7288 123.7577,0.6831 145.5184,11.005 11.5436,5.4755 18.6246,12.1814 23.1013,21.8773 4.7288,10.2421 4.87,27.9936 0.3052,38.3738 -5.7169,13.0006 -20.2235,23.4677 -39.2781,28.3411 -16.6519,4.2588 -36.7618,5.3739 -96.9143,5.3739 -51.9251,0 -58.3808,0.2304 -59.1017,2.109 -0.4452,1.16 -0.8094,37.1389 -0.8094,79.95312 0,73.63504 0.1294,77.91359 2.4032,79.13021 1.4066,0.75274 28.6414,1.4954 65.6667,1.79066 60.1676,0.4798 63.7796,0.64753 73.8105,3.42753 15.0098,4.15983 23.7312,8.49577 31.267,15.54452 9.7026,9.07564 12.8192,17.01703 12.8377,32.71161 0.013,10.8776 -0.4735,13.70244 -3.4429,20 -7.5556,16.02371 -22.6083,25.01672 -50.5422,30.19575 -8.6832,1.60989 -25.3636,2.30035 -71.3333,2.95275 l -60,0.8515 -0.7921,90.66667 c -0.5388,61.66363 -1.2894,92.79924 -2.3464,97.33333 -2.3347,10.01354 -5.5243,19.25608 -9.1292,26.45362 -11.4258,22.81188 -37.4058,33.2217 -66.9288,26.81737 z m 1407.9235,0.69451 c -21.5091,-4.53734 -35.5733,-20.26044 -42.9797,-48.04878 l -2.9986,-11.25001 -0.4448,-170 c -0.309,-118.16151 0,-173.9472 1.0286,-182.94451 3.7341,-32.8093 14.0864,-52.51398 31.9393,-60.79395 6.0279,-2.7957 9.2647,-3.3726 18.9204,-3.3726 10.408,0 12.5707,0.4539 20.3079,4.2629 15.3302,7.54712 26.9506,24.21481 34.782,49.88953 4.4973,14.74432 6.526,15.22172 13.9896,3.29196 12.5848,-20.1155 21.6548,-28.38856 44.0161,-40.14853 14.1771,-7.45584 25.1253,-11.58766 41.3788,-15.61636 11.1823,-2.7716 15.8697,-3.1452 40,-3.1873 35.1043,-0.061 51.9343,3.2668 75.9628,15.02198 38.9864,19.07271 62.3545,52.96831 72.3404,104.93021 2.7273,14.19148 2.8356,18.9649 3.3451,147.33334 0.5324,134.18424 0.1901,147.15241 -4.3459,164.66666 -5.0111,19.34896 -15.9717,34.88358 -29.1364,41.29544 -10.1685,4.95262 -25.0681,6.89103 -37.8327,4.92195 -29.3521,-4.52796 -44.6352,-24.70699 -49.62,-65.51575 -0.8462,-6.92825 -1.38,-52.84093 -1.38,-118.70164 0,-127.11493 -0.593,-134.9978 -11.9878,-159.33333 -8.7468,-18.68008 -20.2334,-28.20401 -38.7832,-32.15647 -23.9444,-5.10189 -51.799,1.69647 -68.1004,16.62102 -16.283,14.90766 -24.999,36.15602 -31.3216,76.35806 -1.7986,11.43628 -2.3507,31.6999 -3.1743,116.51072 -0.6735,69.35671 -1.5007,105.04595 -2.5496,110 -6.3643,30.05924 -18.7409,47.66942 -37.9037,53.93158 -8.211,2.68322 -27.2079,3.77309 -35.4523,2.03392 z"
       id="path81" />
  </g>
</svg>
